<?xml version="1.0" standalone="no"?>
<!DOCTYPE svg PUBLIC "-//W3C//DTD SVG 20010904//EN"
 "http://www.w3.org/TR/2001/REC-SVG-20010904/DTD/svg10.dtd">
<svg version="1.0" xmlns="http://www.w3.org/2000/svg"
 width="96.000000pt" height="96.000000pt" viewBox="0 0 96.000000 96.000000"
 preserveAspectRatio="xMidYMid meet">
<metadata>
Created by potrace 1.14, written by Peter Selinger 2001-2017
</metadata>
<g transform="translate(0.000000,96.000000) scale(0.100000,-0.100000)"
fill="#000000" stroke="none">
<path d="M203 726 l-28 -24 0 -222 0 -222 28 -24 c28 -24 28 -24 277 -24 249
0 249 0 277 24 l28 24 0 222 0 222 -28 24 c-28 24 -28 24 -277 24 -249 0 -249
0 -277 -24z m555 -100 c8 -5 11 -57 9 -182 -3 -234 24 -214 -292 -214 -233 0
-243 1 -261 21 -17 19 -19 38 -19 198 l0 176 45 5 c69 8 505 4 518 -4z"/>
<path d="M472 439 c-24 -61 -41 -114 -38 -117 3 -3 8 -3 10 -1 7 7 86 209 86
219 0 32 -21 -4 -58 -101z"/>
<path d="M342 477 c-18 -18 -32 -37 -32 -43 0 -15 68 -89 75 -82 4 4 -7 24
-24 45 l-31 37 30 31 c17 17 30 34 30 38 0 15 -17 6 -48 -26z"/>
<path d="M570 503 c0 -4 13 -21 30 -38 l30 -31 -31 -37 c-17 -21 -28 -41 -24
-45 8 -8 75 67 75 84 0 5 -15 24 -33 42 -32 31 -47 39 -47 25z"/>
</g>
</svg>
